<svg xmlns="http://www.w3.org/2000/svg" viewBox="0 0 1500 1140" width="1500" height="1140"><rect width="1500" height="1140" fill="#0F0D0B"/><rect x="48" y="48" width="600" height="500" rx="18" fill="#1B1713"/><text x="88" y="100" fill="#8B8272" font-family="Noto Sans, DejaVu Sans, FreeSans, sans-serif" font-size="19" font-weight="600" letter-spacing="3.4">PRIMARY MARK / BASALT</text><g transform="translate(168,150) scale(3.0)"><g class="acerv-mark">
    <polygon points="46.00,16.00 58.75,16.00 51.88,48.50 33.44,48.50" fill="#EFE7DA"/>
    <polygon points="74.00,16.00 61.25,16.00 68.12,48.50 86.56,48.50" fill="#DCD2C0"/>
    <polygon points="50.62,53.50 48.62,61.50 42.33,61.50 36.67,78.50 44.38,78.50 38.00,104.00 12.00,104.00 31.51,53.50" fill="#C2B6A1"/>
    <polygon points="69.38,53.50 71.38,61.50 77.67,61.50 83.33,78.50 75.62,78.50 82.00,104.00 108.00,104.00 88.49,53.50" fill="#A3957D"/>
    <polygon points="44.00,64.00 76.00,64.00 80.00,76.00 40.00,76.00" fill="#C9762E"/>
  </g></g><text x="88" y="520" fill="#8B8272" font-family="Noto Sans, DejaVu Sans, FreeSans, sans-serif" font-size="17" font-weight="600" letter-spacing="3.4">A BUILT FROM FIVE STACKED STONES</text><rect x="48" y="572" width="600" height="440" rx="18" fill="#0B0E13"/><text x="88" y="624" fill="#6E7D93" font-family="Noto Sans, DejaVu Sans, FreeSans, sans-serif" font-size="19" font-weight="600" letter-spacing="3.4">SLATE + SIGNAL</text><g transform="translate(228,660) scale(2.5)"><g class="acerv-mark">
    <polygon points="46.00,16.00 58.75,16.00 51.88,48.50 33.44,48.50" fill="#E8EDF4"/>
    <polygon points="74.00,16.00 61.25,16.00 68.12,48.50 86.56,48.50" fill="#C6CFDD"/>
    <polygon points="50.62,53.50 48.62,61.50 42.33,61.50 36.67,78.50 44.38,78.50 38.00,104.00 12.00,104.00 31.51,53.50" fill="#9AA7BB"/>
    <polygon points="69.38,53.50 71.38,61.50 77.67,61.50 83.33,78.50 75.62,78.50 82.00,104.00 108.00,104.00 88.49,53.50" fill="#6F7D93"/>
    <polygon points="44.00,64.00 76.00,64.00 80.00,76.00 40.00,76.00" fill="#3FB6F0"/>
  </g></g><text x="88" y="990" fill="#6E7D93" font-family="Noto Sans, DejaVu Sans, FreeSans, sans-serif" font-size="17" font-weight="600" letter-spacing="3.4">COOL PALETTE FOR PRODUCT UI / DARK MODE</text><rect x="676" y="48" width="776" height="500" rx="18" fill="#1B1713"/><text x="716" y="100" fill="#8B8272" font-family="Noto Sans, DejaVu Sans, FreeSans, sans-serif" font-size="19" font-weight="600" letter-spacing="3.4">LOCKUP / DARK</text><g transform="translate(716,150) scale(0.9)"><g class="acerv-mark">
    <polygon points="46.00,16.00 58.75,16.00 51.88,48.50 33.44,48.50" fill="#EFE7DA"/>
    <polygon points="74.00,16.00 61.25,16.00 68.12,48.50 86.56,48.50" fill="#DCD2C0"/>
    <polygon points="50.62,53.50 48.62,61.50 42.33,61.50 36.67,78.50 44.38,78.50 38.00,104.00 12.00,104.00 31.51,53.50" fill="#C2B6A1"/>
    <polygon points="69.38,53.50 71.38,61.50 77.67,61.50 83.33,78.50 75.62,78.50 82.00,104.00 108.00,104.00 88.49,53.50" fill="#A3957D"/>
    <polygon points="44.00,64.00 76.00,64.00 80.00,76.00 40.00,76.00" fill="#C9762E"/>
  </g></g><text x="860" y="235" fill="#EFE7DA" font-family="Noto Sans, DejaVu Sans, FreeSans, sans-serif" font-size="76" font-weight="700" letter-spacing="22.8">ACERV</text><text x="716" y="330" fill="#8B8272" font-family="Noto Sans, DejaVu Sans, FreeSans, sans-serif" font-size="19" font-weight="600" letter-spacing="3.4">LOCKUP / LIGHT</text><rect x="716" y="352" width="696" height="150" rx="12" fill="#F5F1E8"/><g transform="translate(750,394) scale(0.55)"><g class="acerv-mark">
    <polygon points="46.00,16.00 58.75,16.00 51.88,48.50 33.44,48.50" fill="#14110E"/>
    <polygon points="74.00,16.00 61.25,16.00 68.12,48.50 86.56,48.50" fill="#14110E"/>
    <polygon points="50.62,53.50 48.62,61.50 42.33,61.50 36.67,78.50 44.38,78.50 38.00,104.00 12.00,104.00 31.51,53.50" fill="#14110E"/>
    <polygon points="69.38,53.50 71.38,61.50 77.67,61.50 83.33,78.50 75.62,78.50 82.00,104.00 108.00,104.00 88.49,53.50" fill="#14110E"/>
    <polygon points="44.00,64.00 76.00,64.00 80.00,76.00 40.00,76.00" fill="#14110E"/>
  </g></g><text x="832" y="445" fill="#14110E" font-family="Noto Sans, DejaVu Sans, FreeSans, sans-serif" font-size="54" font-weight="700" letter-spacing="16.2">ACERV</text><rect x="676" y="572" width="776" height="440" rx="18" fill="#1B1713"/><text x="716" y="624" fill="#8B8272" font-family="Noto Sans, DejaVu Sans, FreeSans, sans-serif" font-size="19" font-weight="600" letter-spacing="3.4">SMALL SIZES — GAPS CLOSE, A SURVIVES</text><g transform="translate(716,660.0) scale(0.80000)"><g class="acerv-mark">
    <polygon points="46.00,16.00 58.75,16.00 51.88,48.50 33.44,48.50" fill="#EFE7DA"/>
    <polygon points="74.00,16.00 61.25,16.00 68.12,48.50 86.56,48.50" fill="#DCD2C0"/>
    <polygon points="50.62,53.50 48.62,61.50 42.33,61.50 36.67,78.50 44.38,78.50 38.00,104.00 12.00,104.00 31.51,53.50" fill="#C2B6A1"/>
    <polygon points="69.38,53.50 71.38,61.50 77.67,61.50 83.33,78.50 75.62,78.50 82.00,104.00 108.00,104.00 88.49,53.50" fill="#A3957D"/>
    <polygon points="44.00,64.00 76.00,64.00 80.00,76.00 40.00,76.00" fill="#C9762E"/>
  </g></g><text x="716" y="798" fill="#8B8272" font-family="Noto Sans, DejaVu Sans, FreeSans, sans-serif" font-size="15" font-weight="600" letter-spacing="3.4">96PX</text><g transform="translate(828,680.0) scale(0.46667)"><g class="acerv-mark">
    <polygon points="46.00,16.00 58.75,16.00 51.88,48.50 33.44,48.50" fill="#EFE7DA"/>
    <polygon points="74.00,16.00 61.25,16.00 68.12,48.50 86.56,48.50" fill="#DCD2C0"/>
    <polygon points="50.62,53.50 48.62,61.50 42.33,61.50 36.67,78.50 44.38,78.50 38.00,104.00 12.00,104.00 31.51,53.50" fill="#C2B6A1"/>
    <polygon points="69.38,53.50 71.38,61.50 77.67,61.50 83.33,78.50 75.62,78.50 82.00,104.00 108.00,104.00 88.49,53.50" fill="#A3957D"/>
    <polygon points="44.00,64.00 76.00,64.00 80.00,76.00 40.00,76.00" fill="#C9762E"/>
  </g></g><text x="828" y="798" fill="#8B8272" font-family="Noto Sans, DejaVu Sans, FreeSans, sans-serif" font-size="15" font-weight="600" letter-spacing="3.4">56PX</text><g transform="translate(940,690.0) scale(0.30000)"><g class="acerv-mark">
    <polygon points="46.00,16.00 58.75,16.00 51.88,48.50 33.44,48.50" fill="#EFE7DA"/>
    <polygon points="74.00,16.00 61.25,16.00 68.12,48.50 86.56,48.50" fill="#DCD2C0"/>
    <polygon points="50.62,53.50 48.62,61.50 42.33,61.50 36.67,78.50 44.38,78.50 38.00,104.00 12.00,104.00 31.51,53.50" fill="#C2B6A1"/>
    <polygon points="69.38,53.50 71.38,61.50 77.67,61.50 83.33,78.50 75.62,78.50 82.00,104.00 108.00,104.00 88.49,53.50" fill="#A3957D"/>
    <polygon points="44.00,64.00 76.00,64.00 80.00,76.00 40.00,76.00" fill="#C9762E"/>
  </g></g><text x="940" y="798" fill="#8B8272" font-family="Noto Sans, DejaVu Sans, FreeSans, sans-serif" font-size="15" font-weight="600" letter-spacing="3.4">36PX</text><g transform="translate(1052,696.0) scale(0.20000)"><g class="acerv-mark">
    <polygon points="46.00,16.00 58.75,16.00 51.88,48.50 33.44,48.50" fill="#EFE7DA"/>
    <polygon points="74.00,16.00 61.25,16.00 68.12,48.50 86.56,48.50" fill="#DCD2C0"/>
    <polygon points="50.62,53.50 48.62,61.50 42.33,61.50 36.67,78.50 44.38,78.50 38.00,104.00 12.00,104.00 31.51,53.50" fill="#C2B6A1"/>
    <polygon points="69.38,53.50 71.38,61.50 77.67,61.50 83.33,78.50 75.62,78.50 82.00,104.00 108.00,104.00 88.49,53.50" fill="#A3957D"/>
    <polygon points="44.00,64.00 76.00,64.00 80.00,76.00 40.00,76.00" fill="#C9762E"/>
  </g></g><text x="1052" y="798" fill="#8B8272" font-family="Noto Sans, DejaVu Sans, FreeSans, sans-serif" font-size="15" font-weight="600" letter-spacing="3.4">24PX</text><g transform="translate(1164,700.0) scale(0.13333)"><g class="acerv-mark">
    <polygon points="46.00,16.00 58.75,16.00 51.88,48.50 33.44,48.50" fill="#EFE7DA"/>
    <polygon points="74.00,16.00 61.25,16.00 68.12,48.50 86.56,48.50" fill="#DCD2C0"/>
    <polygon points="50.62,53.50 48.62,61.50 42.33,61.50 36.67,78.50 44.38,78.50 38.00,104.00 12.00,104.00 31.51,53.50" fill="#C2B6A1"/>
    <polygon points="69.38,53.50 71.38,61.50 77.67,61.50 83.33,78.50 75.62,78.50 82.00,104.00 108.00,104.00 88.49,53.50" fill="#A3957D"/>
    <polygon points="44.00,64.00 76.00,64.00 80.00,76.00 40.00,76.00" fill="#C9762E"/>
  </g></g><text x="1164" y="798" fill="#8B8272" font-family="Noto Sans, DejaVu Sans, FreeSans, sans-serif" font-size="15" font-weight="600" letter-spacing="3.4">16PX</text><line x1="716" y1="830" x2="1412" y2="830" stroke="#2E2721" stroke-width="2"/><text x="716" y="884" fill="#8B8272" font-family="Noto Sans, DejaVu Sans, FreeSans, sans-serif" font-size="17" font-weight="600" letter-spacing="3.4">MONOCHROME</text><rect x="900" y="854" width="110" height="50" fill="#14110E"/><g transform="translate(930,854) scale(0.41667)"><g class="acerv-mark">
    <polygon points="46.00,16.00 58.75,16.00 51.88,48.50 33.44,48.50" fill="#EFE7DA"/>
    <polygon points="74.00,16.00 61.25,16.00 68.12,48.50 86.56,48.50" fill="#EFE7DA"/>
    <polygon points="50.62,53.50 48.62,61.50 42.33,61.50 36.67,78.50 44.38,78.50 38.00,104.00 12.00,104.00 31.51,53.50" fill="#EFE7DA"/>
    <polygon points="69.38,53.50 71.38,61.50 77.67,61.50 83.33,78.50 75.62,78.50 82.00,104.00 108.00,104.00 88.49,53.50" fill="#EFE7DA"/>
    <polygon points="44.00,64.00 76.00,64.00 80.00,76.00 40.00,76.00" fill="#EFE7DA"/>
  </g></g><rect x="1040" y="854" width="110" height="50" fill="#F5F1E8"/><g transform="translate(1070,854) scale(0.41667)"><g class="acerv-mark">
    <polygon points="46.00,16.00 58.75,16.00 51.88,48.50 33.44,48.50" fill="#14110E"/>
    <polygon points="74.00,16.00 61.25,16.00 68.12,48.50 86.56,48.50" fill="#14110E"/>
    <polygon points="50.62,53.50 48.62,61.50 42.33,61.50 36.67,78.50 44.38,78.50 38.00,104.00 12.00,104.00 31.51,53.50" fill="#14110E"/>
    <polygon points="69.38,53.50 71.38,61.50 77.67,61.50 83.33,78.50 75.62,78.50 82.00,104.00 108.00,104.00 88.49,53.50" fill="#14110E"/>
    <polygon points="44.00,64.00 76.00,64.00 80.00,76.00 40.00,76.00" fill="#14110E"/>
  </g></g><text x="1250" y="800" fill="#8B8272" font-family="Noto Sans, DejaVu Sans, FreeSans, sans-serif" font-size="15" font-weight="600" letter-spacing="3.4">APP ICON</text><rect x="1250" y="620" width="150" height="150" rx="34" fill="#0F0D0B" stroke="#2E2721" stroke-width="2"/><g transform="translate(1268,638) scale(0.95)"><g class="acerv-mark">
    <polygon points="46.00,16.00 58.75,16.00 51.88,48.50 33.44,48.50" fill="#EFE7DA"/>
    <polygon points="74.00,16.00 61.25,16.00 68.12,48.50 86.56,48.50" fill="#DCD2C0"/>
    <polygon points="50.62,53.50 48.62,61.50 42.33,61.50 36.67,78.50 44.38,78.50 38.00,104.00 12.00,104.00 31.51,53.50" fill="#C2B6A1"/>
    <polygon points="69.38,53.50 71.38,61.50 77.67,61.50 83.33,78.50 75.62,78.50 82.00,104.00 108.00,104.00 88.49,53.50" fill="#A3957D"/>
    <polygon points="44.00,64.00 76.00,64.00 80.00,76.00 40.00,76.00" fill="#C9762E"/>
  </g></g><text x="48" y="1078" fill="#6E6455" font-family="Noto Sans, DejaVu Sans, FreeSans, sans-serif" font-size="17" font-weight="600" letter-spacing="3.4">ACERV — FROM LATIN ACERVUS: HEAP, PILE, MASS. FIVE STONES MAKE THE A; BELOW 24PX THE GAPS CLOSE.</text></svg>